<svg t="1723348040081" class="icon" viewBox="0 0 1024 1024" version="1.1" xmlns="http://www.w3.org/2000/svg" p-id="1456" width="200" height="200"><path d="M290.816 579.584s-2.730667 21.162667-5.461333 45.056c-1.365333 12.288-2.730667 25.258667-3.413334 36.181333-0.682667 5.461333-0.682667 10.922667-1.365333 15.701334 0 4.778667-0.682667 8.874667-0.682667 12.288 0 6.826667 0.682667 13.653333 2.048 19.797333 1.365333 4.778667 2.730667 9.557333 5.461334 14.336 4.096 6.826667 9.557333 12.970667 16.384 17.749333 7.509333 4.778667 16.384 8.874667 26.624 12.288 15.018667 4.096 32.085333 7.509333 48.469333 7.509334 6.144 0 12.288-0.682667 18.432-2.048 4.778667-0.682667 8.874667-2.048 12.970667-4.096 6.144-2.730667 11.605333-6.826667 15.701333-12.970667 2.048-2.730667 3.413333-6.144 4.778667-9.557333 1.365333-3.413333 2.048-7.509333 2.048-11.605334 1.365333-19.114667 2.048-43.690667 2.730666-63.488 0.682667-19.797333 0.682667-35.498667 0.682667-35.498666l-20.48-0.682667v2.730667c0 12.288-1.365333 62.805333-3.413333 95.573333 0 4.096-1.365333 7.509333-2.730667 9.557333-1.365333 2.048-2.730667 3.413333-4.096 4.778667-2.730667 2.048-6.144 3.413333-10.922667 4.778667-4.778667 1.365333-10.24 1.365333-15.701333 1.365333-13.653333 0-29.354667-2.730667-43.008-6.826667-8.192-2.730667-14.336-5.461333-19.114667-8.192-3.413333-2.048-6.144-4.778667-8.192-6.826666-3.413333-3.413333-5.461333-7.509333-6.826666-12.288-1.365333-4.778667-2.048-10.24-2.048-17.066667 0-2.730667 0-6.826667 0.682666-10.922667 0.682667-15.701333 3.413333-40.277333 5.461334-60.074666 1.365333-10.24 2.048-19.114667 2.730666-25.258667 0.682667-3.413333 0.682667-6.144 0.682667-7.509333 0-2.048 0.682667-2.730667 0.682667-2.730667l-19.114667-2.048zM456.704 243.712c-12.288 0-21.845333 14.336-21.845333 32.768s9.557333 32.768 21.845333 32.768 21.845333-14.336 21.845333-32.768-9.557333-32.768-21.845333-32.768z m6.144 40.96c-5.461333 0-9.557333-6.144-9.557333-14.336 0-7.509333 4.096-14.336 9.557333-14.336 5.461333 0 9.557333 6.144 9.557333 14.336 0 8.192-4.096 14.336-9.557333 14.336zM573.44 270.336c1.365333-2.048 2.048-3.413333 3.413333-4.096 0.682667-0.682667 1.365333-0.682667 2.730667-0.682667 0.682667 0 1.365333 0 2.730667 0.682667 1.365333 1.365333 3.413333 3.413333 4.778666 7.509333 1.365333 4.096 2.048 8.874667 2.048 14.336h17.066667c0-10.922667-2.048-21.162667-6.826667-29.354666-2.048-4.096-4.778667-7.509333-8.192-10.24-3.413333-2.730667-7.509333-4.096-11.605333-4.096-4.096 0-8.192 1.365333-11.605333 4.096-4.778667 4.096-8.874667 9.557333-10.922667 16.384-2.730667 6.826667-4.096 14.336-4.096 22.528h17.066667c-0.682667-6.826667 0.682667-12.970667 3.413333-17.066667z" fill="#1296db" p-id="1457"></path><path d="M856.746667 528.384c-6.826667-10.24-14.336-19.114667-21.162667-27.306667 0.682667-0.682667 1.365333-2.048 2.048-2.730666 4.778667-7.509333 7.509333-14.336 9.557333-21.845334 2.730667-10.922667 3.413333-21.845333 3.413334-32.085333 0-17.749333-3.413333-34.133333-10.24-48.469333-6.826667-15.018667-16.384-27.989333-28.672-40.277334l-11.605334-11.605333c-1.365333-12.288-3.413333-28.672-7.509333-49.834667-10.24-53.930667-57.344-135.850667-114.688-175.445333C621.226667 80.554667 549.546667 65.536 512 64.853333c-31.402667-0.682667-102.4 11.605333-164.522667 53.930667-58.026667 39.594667-109.226667 121.514667-115.370666 175.445333-3.413333 30.72-4.778667 50.517333-4.096 64.853334-0.682667 0-6.826667 1.365333-13.653334 6.144-3.413333 2.730667-6.826667 5.461333-10.24 10.24s-5.461333 10.24-6.826666 16.384c-2.048 10.24-3.413333 15.701333-3.413334 18.432-1.365333 1.365333-3.413333 4.096-4.778666 7.509333-2.048 2.730667-3.413333 6.826667-4.778667 10.922667-1.365333 4.096-2.048 8.874667-2.048 14.336 0 2.730667 0 6.144 0.682667 9.557333 1.365333 6.144 3.413333 14.336 7.509333 24.576 2.048 4.778667 4.096 9.557333 6.826667 15.018667-9.557333 10.24-19.797333 22.528-29.354667 36.181333-31.402667 45.738667-65.536 129.706667-60.757333 177.493333 6.144 60.757333 14.336 62.805333 35.498666 49.834667 23.210667-14.336 49.834667-56.661333 49.834667-56.661333s28.672 77.824 75.093333 118.784c54.613333 47.786667 104.448 77.141333 165.205334 90.112 39.594667 8.192 65.536 9.557333 79.189333 8.874666 13.653333 0 39.594667-0.682667 79.189333-8.874666 60.757333-12.288 110.592-41.642667 165.205334-90.112 46.421333-41.642667 75.093333-118.784 75.093333-118.784s26.624 42.325333 49.834667 56.661333c21.162667 12.288 29.354667 10.24 35.498666-49.834667 5.461333-47.786667-28.672-131.754667-60.074666-177.493333z m-264.192-334.506667c30.72 0 55.296 36.864 55.296 82.602667s-24.576 82.602667-55.296 82.602667-55.296-36.864-55.296-82.602667 24.576-82.602667 55.296-82.602667z m-154.282667 0c30.72 0 55.296 36.864 55.296 82.602667s-24.576 82.602667-55.296 82.602667-55.296-36.864-55.296-82.602667 24.576-82.602667 55.296-82.602667z m-40.96 194.56c38.229333-16.384 107.178667-19.797333 124.928-20.48h4.096c17.749333 0.682667 87.381333 4.778667 124.928 20.48 43.690667 19.114667 68.949333 29.354667 68.949333 39.594667s-8.192 21.162667-31.402666 31.402667c-23.210667 10.24-33.450667 8.192-33.450667 8.192s12.288-14.336 16.384-29.354667c0 0-62.805333 51.882667-137.898667 55.978667h-20.48C437.589333 490.154667 375.466667 438.272 375.466667 438.272c4.096 14.336 16.384 29.354667 16.384 29.354667s-10.24 2.048-33.450667-8.192c-23.210667-10.24-31.402667-21.162667-31.402667-31.402667 1.365333-10.24 26.624-20.48 70.314667-39.594667z m-189.098667 37.546667c0.682667-1.365333 1.365333-2.048 2.048-2.730667l0.682667-0.682666 2.048-2.048 0.682667-3.413334 4.096-21.162666c0.682667-4.096 2.048-6.826667 3.413333-8.874667 0.682667-1.365333 2.048-2.048 2.730667-3.413333 1.365333 4.096 3.413333 8.192 5.461333 13.653333 5.461333 11.605333 13.653333 25.941333 26.624 40.96 18.432 22.528 46.421333 46.421333 87.381333 64.853333 40.96 18.432 94.890667 30.72 165.205334 30.72H518.826667c64.853333-1.365333 116.053333-11.605333 155.648-27.989333 30.037333-11.605333 53.930667-26.624 72.362666-42.325333 27.989333-23.210667 45.056-47.786667 54.613334-66.901334 2.730667-5.461333 4.778667-10.24 6.826666-14.336 5.461333 6.826667 9.557333 13.653333 12.970667 21.162667 5.461333 12.288 8.874667 25.258667 8.874667 40.277333 0 8.874667-1.365333 17.749333-3.413334 27.306667-0.682667 4.096-3.413333 9.557333-6.826666 15.701333-6.144 10.922667-17.066667 23.210667-30.72 35.498667-20.48 19.114667-47.786667 38.229333-79.189334 54.613333-31.402667 16.384-65.536 28.672-101.034666 34.816-21.845333 4.096-45.056 5.461333-68.266667 5.461334-44.373333 0-90.112-6.144-131.754667-16.384-41.642667-10.24-79.872-23.893333-109.226666-38.229334-36.864-17.749333-60.074667-41.642667-74.410667-63.488-7.509333-10.922667-12.288-21.162667-15.701333-30.037333-3.413333-8.874667-5.461333-16.384-6.144-20.48-0.682667-2.048-0.682667-3.413333-0.682667-5.461333 0-2.730667 0.682667-6.144 1.365333-8.192 0.682667-3.413333 2.048-6.826667 4.096-8.874667z m514.730667 380.245333c-59.392 79.189333-175.445333 92.842667-210.944 95.573334-35.498667-2.730667-150.869333-16.384-210.944-95.573334-70.997333-94.208-58.709333-194.56-49.834667-223.914666 2.048-6.826667 4.096-13.653333 7.509334-19.797334 9.557333 6.826667 20.48 12.970667 32.085333 19.114667 31.402667 15.018667 70.997333 29.354667 114.005333 39.594667 43.008 10.24 90.112 17.066667 136.533334 17.066666 23.893333 0 48.469333-2.048 71.68-5.461333 57.344-9.557333 111.957333-36.181333 154.965333-65.536l0.682667-0.682667c2.048 5.461333 4.096 10.922667 5.461333 16.384 6.826667 29.354667 19.797333 129.024-51.2 223.232z" fill="#1296db" p-id="1458"></path><path d="M261.461333 828.757333c-7.509333-6.826667-14.336-14.336-21.162666-21.845333-9.557333 5.461333-21.162667 12.288-28.672 19.114667-11.605333 9.557333-16.384 25.258667-6.144 27.306666 0 0-48.469333 48.469333 35.498666 83.285334 85.333333 35.498667 179.541333 25.258667 225.962667-6.144l6.144-4.096c-12.288-1.365333-27.989333-3.413333-46.421333-7.509334-60.757333-12.288-110.592-41.642667-165.205334-90.112zM601.429333 918.869333c-18.432 4.096-33.450667 6.144-46.421333 7.509334l6.144 4.096c45.738667 31.402667 139.946667 41.642667 225.962667 6.144 83.968-34.816 35.498667-83.285333 35.498666-83.285334 10.24-2.048 5.461333-17.066667-6.144-27.306666-7.509333-6.826667-19.114667-13.653333-28.672-19.114667-6.826667 8.192-13.653333 15.701333-21.162666 21.845333-53.930667 48.469333-104.448 77.824-165.205334 90.112z" fill="#1296db" p-id="1459"></path></svg>